# xmcd
#
# Track frame offsets:
# 150
# 16528
# 35085
# 51183
# 69435
# 84791
# 100907
# 117820
# 133217
# 148130
#
# Disc length: 2223 seconds
#
#
# Revision: 0
# Processed by: cddbd v1.5.1PL0 Copyright (c) Steve Scherf et al.
# Submitted via: FreeRIP 2.60 
#
DISCID=8108ad0a
DTITLE=Shania Twain - Up - CD 2
DYEAR=1900
DGENRE=Country
TTITLE0=C'est la Vie
TTITLE1=I'm Jealous
TTITLE2=Ka-Ching!
TTITLE3=Thank You Baby (For Makin' Someday Come...)
TTITLE4=Waiter! Bring Me Water!
TTITLE5=What a Way to Wanna Be
TTITLE6=I Ain't Going Down
TTITLE7=I'm Not in the Mood ( To Say No)!
TTITLE8=In My Car (I'll Be the Driver)
TTITLE9=When You Kiss Me
EXTD=
EXTT0=
EXTT1=
EXTT2=
EXTT3=
EXTT4=
EXTT5=
EXTT6=
EXTT7=
EXTT8=
EXTT9=
PLAYORDER=
